<?xml version="1.0" standalone="no"?>
<!DOCTYPE svg PUBLIC "-//W3C//DTD SVG 20010904//EN"
 "http://www.w3.org/TR/2001/REC-SVG-20010904/DTD/svg10.dtd">
<svg version="1.0" xmlns="http://www.w3.org/2000/svg"
 width="382.000000pt" height="345.000000pt" viewBox="0 0 382.000000 345.000000"
 preserveAspectRatio="xMidYMid meet">

<g transform="translate(0.000000,345.000000) scale(0.100000,-0.100000)"
fill="#000000" stroke="none">
<path d="M2470 2545 l0 -375 375 0 375 0 0 375 0 375 -375 0 -375 0 0 -375z"/>
<path d="M2480 1605 l0 -375 370 0 370 0 0 375 0 375 -370 0 -370 0 0 -375z"/>
<path d="M770 1031 c-67 -24 -143 -99 -159 -157 -51 -182 67 -339 254 -338 77
1 122 16 173 59 24 20 30 30 22 40 -9 10 -21 6 -61 -20 -81 -55 -172 -58 -256
-9 -126 73 -134 276 -14 358 85 58 206 56 277 -6 31 -28 64 -33 64 -9 0 14
-60 62 -98 78 -57 24 -141 26 -202 4z"/>
<path d="M2428 797 c-97 -252 -101 -272 -54 -254 7 3 43 86 81 185 38 99 72
179 75 177 4 -2 38 -85 76 -184 66 -174 70 -181 96 -181 l28 0 -19 48 c-10 26
-53 137 -96 247 -42 110 -80 203 -83 207 -4 4 -51 -107 -104 -245z"/>
<path d="M2932 813 c-50 -131 -94 -246 -98 -256 -6 -16 -2 -18 21 -15 22 2 31
12 45 48 91 241 124 320 130 313 4 -4 37 -88 75 -185 61 -161 70 -178 92 -178
12 0 23 4 23 9 0 10 -176 466 -188 488 -6 9 -39 -67 -100 -224z"/>
<path d="M1860 796 l0 -246 123 0 c169 1 223 26 269 129 25 55 27 150 4 204
-45 109 -106 142 -278 153 l-118 6 0 -246z m158 194 c75 -7 102 -14 134 -35
53 -35 78 -91 78 -175 0 -133 -61 -184 -232 -196 l-98 -7 0 205 c0 188 3 218
19 218 3 0 48 -5 99 -10z"/>
</g>
</svg>
